<!DOCTYPE svg PUBLIC "-//W3C//DTD SVG 1.1//EN" "http://www.w3.org/Graphics/SVG/1.1/DTD/svg11.dtd">
<!-- Uploaded to: SVG Repo, www.svgrepo.com, Transformed by: SVG Repo Mixer Tools -->
<svg version="1.1" id="Icons" xmlns="http://www.w3.org/2000/svg" xmlns:xlink="http://www.w3.org/1999/xlink" viewBox="0 0 32 32" xml:space="preserve" width="800px" height="800px" fill="#000000" stroke="#000000">
<g id="SVGRepo_bgCarrier" stroke-width="0"/>
<g id="SVGRepo_tracerCarrier" stroke-linecap="round" stroke-linejoin="round"/>
<g id="SVGRepo_iconCarrier"> <style type="text/css"> .st0{fill:none;stroke:#000000;stroke-width:2;stroke-linecap:round;stroke-linejoin:round;stroke-miterlimit:10;} </style> <circle class="st0" cx="16" cy="16" r="13"/> <polygon class="st0" points="16,11 10,15.2 12.3,22 19.7,22 22,15.2 "/> <polyline class="st0" points="22,15 26,13 27,9.1 "/> <polyline class="st0" points="12,4 16,6 16,11 "/> <line class="st0" x1="20" y1="4" x2="16" y2="6"/> <line class="st0" x1="26" y1="13" x2="28.9" y2="14.8"/> <polyline class="st0" points="9.9,15 5.9,13 4.9,9.2 "/> <line class="st0" x1="5.9" y1="13" x2="3.1" y2="14.7"/> <polyline class="st0" points="5.3,23.4 10,24 12,22 "/> <line class="st0" x1="12" y1="28" x2="10" y2="24"/> <polyline class="st0" points="26.6,23.5 22,24 20,22 "/> <line class="st0" x1="20" y1="28" x2="22" y2="24"/> </g>
</svg>